<svg width="24" height="24" viewBox="0 0 24 24" fill="none" xmlns="http://www.w3.org/2000/svg">
<mask id="mask0_119_154" style="mask-type:luminance" maskUnits="userSpaceOnUse" x="0" y="0" width="24" height="24">
<path d="M23.4757 0H0V23.4757H23.4757V0Z" fill="white"/>
</mask>
<g mask="url(#mask0_119_154)">
<path d="M17.1186 19.9397C15.666 19.9397 14.7515 20.383 13.9444 20.7841C13.2451 21.1325 12.6748 21.4175 11.7387 21.4175C10.7703 21.4175 10.2323 21.1536 9.53298 20.7841C8.72602 20.383 7.8437 19.9397 6.35886 19.9397C4.87402 19.9397 3.99172 20.383 3.18475 20.7841C2.72208 21.0164 2.31321 21.2169 1.81826 21.333C1.33408 21.4386 0.979004 21.8186 0.979004 22.2936V22.3992C0.979004 23.0325 1.58155 23.4864 2.20561 23.3597C3.00183 23.2013 3.60437 22.9058 4.15312 22.6313C4.8525 22.283 5.412 21.9981 6.35886 21.9981C7.30571 21.9981 7.86522 22.2619 8.56458 22.6313C9.37154 23.0325 10.2539 23.4758 11.7387 23.4758C13.2235 23.4758 14.1059 23.0325 14.9128 22.6313C15.6122 22.283 16.1825 21.9981 17.1186 21.9981C18.0869 21.9981 18.6249 22.2619 19.3243 22.6313C19.8838 22.9058 20.4863 23.2119 21.2933 23.3703C21.4387 23.398 21.5885 23.3943 21.7322 23.3591C21.8759 23.3238 22.0099 23.2581 22.1249 23.1665C22.2399 23.0749 22.3328 22.9596 22.3974 22.8289C22.4619 22.6981 22.4964 22.5549 22.4984 22.4096V22.3147C22.4984 21.8291 22.1326 21.4491 21.6484 21.3436C21.1535 21.2381 20.7553 21.0375 20.2927 20.7947C19.4857 20.383 18.5711 19.9397 17.1186 19.9397ZM17.1186 15.2425C15.666 15.2425 14.7515 15.6963 13.9444 16.0869C13.2451 16.4246 12.6748 16.7202 11.7387 16.7202C10.7703 16.7202 10.2323 16.4563 9.53298 16.0869C8.72602 15.6857 7.8437 15.2425 6.35886 15.2425C4.87402 15.2425 3.99172 15.6963 3.18475 16.0869C2.72208 16.3085 2.31321 16.5197 1.8075 16.6357C1.33408 16.7413 0.979004 17.1213 0.979004 17.5963V17.7019C0.979068 17.8478 1.01228 17.9918 1.07622 18.1236C1.14016 18.2553 1.23323 18.3713 1.34865 18.4633C1.46408 18.5553 1.59896 18.621 1.74347 18.6554C1.88799 18.6898 2.03851 18.6922 2.18409 18.6624C2.99107 18.5041 3.59361 18.198 4.15312 17.9341C4.8525 17.5647 5.39048 17.3008 6.35886 17.3008C7.32723 17.3008 7.86522 17.5647 8.56458 17.9341C9.37154 18.3353 10.2539 18.7785 11.7387 18.7785C13.2235 18.7785 14.1059 18.3247 14.9128 17.9341C15.6122 17.5647 16.1502 17.3008 17.1186 17.3008C18.0869 17.3008 18.6249 17.5647 19.3243 17.9341C19.8838 18.2085 20.4863 18.5147 21.2933 18.673C21.4395 18.701 21.5903 18.6969 21.7347 18.6611C21.8792 18.6253 22.0139 18.5586 22.129 18.4659C22.2441 18.3731 22.337 18.2564 22.4008 18.1244C22.4647 17.9924 22.498 17.8481 22.4984 17.7019V17.6068C22.4984 17.1213 22.1326 16.7413 21.6484 16.6357C21.1535 16.5302 20.7553 16.3297 20.2927 16.0869C19.4857 15.6857 18.5711 15.2425 17.1186 15.2425ZM20.2927 6.71347C19.4857 6.31236 18.5927 5.86902 17.1186 5.86902C15.6445 5.86902 14.7515 6.31236 13.9444 6.71347C13.2451 7.05125 12.6748 7.34681 11.7387 7.34681C10.7703 7.34681 10.2323 7.08292 9.53298 6.71347C8.72602 6.32292 7.8437 5.86902 6.35886 5.86902C4.87402 5.86902 3.99172 6.31236 3.18475 6.71347C2.72208 6.94569 2.31321 7.14625 1.81826 7.26236C1.33408 7.36792 0.979004 7.74792 0.979004 8.22293V8.29685C0.979004 8.93013 1.56003 9.39461 2.18409 9.26797C2.99107 9.10957 3.59361 8.80349 4.15312 8.53957C4.8525 8.19125 5.412 7.90626 6.35886 7.90626C7.30571 7.90626 7.86522 8.17013 8.56458 8.53957C9.37154 8.94069 10.2539 9.38405 11.7387 9.38405C13.2235 9.38405 14.1059 8.93013 14.9128 8.53957C15.6122 8.20181 16.1825 7.90626 17.1186 7.90626C18.0869 7.90626 18.6249 8.17013 19.3243 8.53957C19.8838 8.81405 20.4863 9.12013 21.2933 9.27845C21.4395 9.30645 21.5903 9.30245 21.7347 9.26661C21.8792 9.23077 22.0139 9.16413 22.129 9.07133C22.2441 8.97853 22.337 8.86197 22.4008 8.72989C22.4647 8.59781 22.498 8.45357 22.4984 8.30733V8.21237C22.4984 7.72681 22.1326 7.34681 21.6484 7.24125C21.1535 7.1357 20.7553 6.94569 20.2927 6.71347ZM17.1186 10.5452C15.666 10.5452 14.7515 10.9991 13.9444 11.3897C13.2451 11.7591 12.7071 12.0229 11.7387 12.0229C10.7703 12.0229 10.2323 11.7591 9.53298 11.3897C8.72602 10.9885 7.8437 10.5452 6.35886 10.5452C4.87402 10.5452 3.99172 10.9991 3.18475 11.3897C2.72208 11.6324 2.32397 11.8329 1.82902 11.9385C1.34484 12.0441 0.979004 12.424 0.979004 12.9096V13.0046C0.979068 13.1505 1.01228 13.2946 1.07622 13.4263C1.14016 13.5581 1.23323 13.6741 1.34865 13.7661C1.46408 13.8581 1.59896 13.9237 1.74347 13.9581C1.88799 13.9926 2.03851 13.995 2.18409 13.9652C2.99107 13.8069 3.59361 13.5008 4.15312 13.2369C4.8525 12.8991 5.42276 12.6035 6.35886 12.6035C7.29495 12.6035 7.86522 12.8674 8.56458 13.2369C9.37154 13.638 10.2539 14.0813 11.7387 14.0813C13.2235 14.0813 14.1059 13.6274 14.9128 13.2369C15.6122 12.8991 16.1825 12.6035 17.1186 12.6035C18.0869 12.6035 18.6249 12.8674 19.3243 13.2369C19.8838 13.5113 20.4863 13.8174 21.2933 13.9757C21.4387 14.0036 21.5885 13.9997 21.7322 13.9645C21.8759 13.9293 22.0099 13.8636 22.1249 13.772C22.2399 13.6804 22.3328 13.5651 22.3974 13.4343C22.4619 13.3036 22.4964 13.1605 22.4984 13.0152V12.9202C22.4984 12.4346 22.1326 12.0546 21.6484 11.9491C21.1535 11.8435 20.7553 11.6429 20.2927 11.4001C19.4857 10.9885 18.5711 10.5452 17.1186 10.5452Z" fill="url(#paint0_linear_119_154)"/>
</g>
<defs>
<linearGradient id="paint0_linear_119_154" x1="11.7387" y1="5.86902" x2="11.7387" y2="23.4758" gradientUnits="userSpaceOnUse">
<stop stop-color="#FFBF00"/>
<stop offset="1" stop-color="#F2A40C"/>
</linearGradient>
</defs>
</svg>
