<svg width="24" height="24" viewBox="0 0 24 24" fill="none" xmlns="http://www.w3.org/2000/svg">
<g clip-path="url(#clip0_119_148)">
<mask id="mask0_119_148" style="mask-type:luminance" maskUnits="userSpaceOnUse" x="0" y="0" width="24" height="24">
<path d="M23.4757 0H0V23.4757H23.4757V0Z" fill="white"/>
</mask>
<g mask="url(#mask0_119_148)">
<path d="M11.7378 7.46954C9.3796 7.46954 7.46954 9.3796 7.46954 11.7378C7.46954 14.0961 9.3796 16.0062 11.7378 16.0062C14.0961 16.0062 16.0062 14.0961 16.0062 11.7378C16.0062 9.3796 14.0961 7.46954 11.7378 7.46954ZM21.2775 10.6708C21.0358 8.50688 20.0655 6.48947 18.5258 4.94985C16.9862 3.41022 14.9689 2.43989 12.805 2.19818V1.06708C12.805 0.480185 12.3247 0 11.7378 0C11.151 0 10.6708 0.480185 10.6708 1.06708V2.19818C8.50688 2.43989 6.48947 3.41022 4.94985 4.94985C3.41022 6.48947 2.43989 8.50688 2.19818 10.6708H1.06708C0.480185 10.6708 0 11.151 0 11.7378C0 12.3247 0.480185 12.805 1.06708 12.805H2.19818C2.43989 14.9689 3.41022 16.9862 4.94985 18.5258C6.48947 20.0655 8.50688 21.0358 10.6708 21.2775V22.4086C10.6708 22.9955 11.151 23.4757 11.7378 23.4757C12.3247 23.4757 12.805 22.9955 12.805 22.4086V21.2775C14.9689 21.0358 16.9862 20.0655 18.5258 18.5258C20.0655 16.9862 21.0358 14.9689 21.2775 12.805H22.4086C22.9955 12.805 23.4757 12.3247 23.4757 11.7378C23.4757 11.151 22.9955 10.6708 22.4086 10.6708H21.2775ZM11.7378 19.2074C7.60826 19.2074 4.26831 15.8674 4.26831 11.7378C4.26831 7.60826 7.60826 4.26831 11.7378 4.26831C15.8674 4.26831 19.2074 7.60826 19.2074 11.7378C19.2074 15.8674 15.8674 19.2074 11.7378 19.2074Z" fill="url(#paint0_linear_119_148)"/>
</g>
</g>
<defs>
<linearGradient id="paint0_linear_119_148" x1="11.7378" y1="0" x2="11.7378" y2="23.4757" gradientUnits="userSpaceOnUse">
<stop stop-color="#FFBF00"/>
<stop offset="1" stop-color="#F2A40C"/>
</linearGradient>
<clipPath id="clip0_119_148">
<rect width="24" height="24" fill="white"/>
</clipPath>
</defs>
</svg>
