<svg width="24" height="24" viewBox="0 0 24 24" fill="none" xmlns="http://www.w3.org/2000/svg">
<path d="M18.3405 7.49931H17.2401V5.35668C17.2401 2.39987 14.7752 0.00012207 11.738 0.00012207C8.70076 0.00012207 6.23584 2.39987 6.23584 5.35668V7.49931H5.13542C3.92495 7.49931 2.93457 8.46351 2.93457 9.64191V20.355C2.93457 21.5335 3.92495 22.4977 5.13542 22.4977H18.3405C19.551 22.4977 20.5413 21.5335 20.5413 20.355V9.64191C20.5413 8.46351 19.551 7.49931 18.3405 7.49931ZM11.738 17.1411C10.5275 17.1411 9.53708 16.177 9.53708 14.9985C9.53708 13.8201 10.5275 12.8558 11.738 12.8558C12.9484 12.8558 13.9388 13.8201 13.9388 14.9985C13.9388 16.177 12.9484 17.1411 11.738 17.1411ZM8.43668 7.49931V5.35668C8.43668 3.57831 9.91124 2.14275 11.738 2.14275C13.5647 2.14275 15.0392 3.57831 15.0392 5.35668V7.49931H8.43668Z" fill="url(#paint0_linear_119_146)"/>
<defs>
<linearGradient id="paint0_linear_119_146" x1="11.738" y1="0.00012207" x2="11.738" y2="22.4977" gradientUnits="userSpaceOnUse">
<stop stop-color="#FFBF00"/>
<stop offset="1" stop-color="#F2A40C"/>
</linearGradient>
</defs>
</svg>
